<?xml version="1.0" encoding="utf-8"?>
<!-- Generator: Adobe Illustrator 19.0.0, SVG Export Plug-In . SVG Version: 6.00 Build 0)  -->
<svg version="1.1" id="Layer_1" xmlns="http://www.w3.org/2000/svg" xmlns:xlink="http://www.w3.org/1999/xlink" x="0px" y="0px"
	 viewBox="0 0 16 16" style="enable-background:new 0 0 16 16;" xml:space="preserve">
<path d="M6,5h1v1H6V5z M4,4H3v1h1V4z M6,4H5v1h1V4z M2,5v1h1V5H2z M3,7h1V6H3V7z M5,7h1V6H5V7z M4,5v1h1V5H4z M2,14h1v-1H2V14z
	 M4,14h1v-1H4V14z M6,14h1v-1H6V14z M9,13H8v1h1V13z M16,3.5v4C16,8.3,15.3,9,14.5,9H14v3v3c0,0.6-0.4,1-1,1H1c-0.6,0-1-0.4-1-1V3.5
	C0,2.7,0.7,2,1.5,2h3H8V1.5V1H7H6V0.5V0h2.5H11v0.5V1h-1H9v0.5V2h3h2.5C15.3,2,16,2.7,16,3.5z M13,12H7H1v3h12V12z M3,11v-1H2v1H3z
	 M5,11v-1H4v1H5z M15,3.5C15,3.2,14.8,3,14.5,3H9v2.5V8H8.5H8V7.5V7H7V6h1V5.5V5H7V4h1V3.5V3H1.5C1.2,3,1,3.2,1,3.5v4
	C1,7.8,1.2,8,1.5,8H8v1H6v0.5V10h2.5H11V9.5V9H9V8h5.5C14.8,8,15,7.8,15,7.5V3.5z"/>
</svg>
