<?xml version="1.0" encoding="utf-8"?><!-- Uploaded to: SVG Repo, www.svgrepo.com, Generator: SVG Repo Mixer Tools -->
<svg fill="#000000" width="800px" height="800px" viewBox="0 0 24 24" xmlns="http://www.w3.org/2000/svg">
  <path d="M12,2 C17.4292399,2 21.8479317,6.32667079 21.9961582,11.7200952 L22,12 L22,13 C22,15.1729208 20.477434,17 18.5,17 C17.3269391,17 16.3139529,16.3570244 15.6839382,15.3803024 C14.770593,16.3757823 13.4581934,17 12,17 C9.23857625,17 7,14.7614237 7,12 C7,9.23857625 9.23857625,7 12,7 C14.6887547,7 16.8818181,9.12230671 16.9953805,11.7831104 L17,12 L17,13 C17,14.1407877 17.7160103,15 18.5,15 C19.2447902,15 19.928229,14.2245609 19.9947109,13.1689341 L20,13 L20,12 C20,7.581722 16.418278,4 12,4 C7.581722,4 4,7.581722 4,12 C4,16.418278 7.581722,20 12,20 C13.1630948,20 14.2892822,19.7522618 15.3225159,19.2798331 C15.8247876,19.0501777 16.4181317,19.271177 16.647787,19.7734487 C16.8774423,20.2757205 16.656443,20.8690646 16.1541713,21.0987199 C14.861218,21.689901 13.4515463,22 12,22 C6.4771525,22 2,17.5228475 2,12 C2,6.4771525 6.4771525,2 12,2 Z M12,9 C10.3431458,9 9,10.3431458 9,12 C9,13.6568542 10.3431458,15 12,15 C13.6568542,15 15,13.6568542 15,12 C15,10.3431458 13.6568542,9 12,9 Z"/>
</svg>