<svg xmlns="http://www.w3.org/2000/svg" xml:space="preserve" viewBox="0 0 16 16"><path d="M0 12h1v-1H0Zm15-7h1V4h-1zm-1 7h1v-1h-1zm-2 0h1v-1h-1zm-2 0h1v-1h-1Zm-2 0h1v-1H8Zm-2 0h1v-1H6Zm-2 0h1v-1H4Zm-2 0h1v-1H2Zm13-1h1v-1h-1ZM0 10h1V9H0Zm15-1h1V8h-1ZM0 8h1V7H0Zm15-1h1V6h-1ZM0 6h1V5H0Zm13-1h1V4h-1zm-2 0h1V4h-1ZM9 5h1V4H9ZM7 5h1V4H7ZM5 5h1V4H5ZM3 5h1V4H3ZM1 5h1V4H1Z" style="color:#000;font-style:normal;font-variant:normal;font-weight:400;font-stretch:normal;font-size:medium;line-height:normal;font-family:sans-serif;text-indent:0;text-align:start;text-decoration:none;text-decoration-line:none;text-decoration-style:solid;text-decoration-color:#000;letter-spacing:normal;word-spacing:normal;text-transform:none;direction:ltr;block-progression:tb;writing-mode:lr-tb;baseline-shift:baseline;text-anchor:start;white-space:normal;clip-rule:nonzero;display:inline;overflow:visible;visibility:visible;opacity:1;isolation:auto;mix-blend-mode:normal;color-interpolation:sRGB;color-interpolation-filters:linearRGB;solid-color:#000;solid-opacity:1;fill:#000;fill-opacity:1;fill-rule:nonzero;stroke:none;stroke-width:1;stroke-linecap:butt;stroke-linejoin:miter;stroke-miterlimit:4;stroke-dasharray:1,1;stroke-dashoffset:1.5;stroke-opacity:1;color-rendering:auto;image-rendering:auto;shape-rendering:auto;text-rendering:auto"/></svg>