<?xml version="1.0" encoding="utf-8"?>
<!-- Generated by IcoMoon.io -->
<!DOCTYPE svg PUBLIC "-//W3C//DTD SVG 1.1//EN" "http://www.w3.org/Graphics/SVG/1.1/DTD/svg11.dtd">
<svg version="1.1" xmlns="http://www.w3.org/2000/svg" xmlns:xlink="http://www.w3.org/1999/xlink" width="28" height="28" viewBox="0 0 28 28">
<path fill="#444" d="M26.281 26q-0.688 0-2.070-0.055t-2.086-0.055q-0.688 0-2.063 0.055t-2.063 0.055q-0.375 0-0.578-0.32t-0.203-0.711q0-0.484 0.266-0.719t0.609-0.266 0.797-0.109 0.703-0.234q0.516-0.328 0.516-2.188l-0.016-6.109q0-0.328-0.016-0.484-0.203-0.063-0.781-0.063h-10.547q-0.594 0-0.797 0.063-0.016 0.156-0.016 0.484l-0.016 5.797q0 2.219 0.578 2.562 0.25 0.156 0.75 0.203t0.891 0.055 0.703 0.234 0.313 0.711q0 0.406-0.195 0.75t-0.57 0.344q-0.734 0-2.18-0.055t-2.164-0.055q-0.672 0-2 0.055t-1.984 0.055q-0.359 0-0.555-0.328t-0.195-0.703q0-0.469 0.242-0.703t0.562-0.273 0.742-0.117 0.656-0.234q0.516-0.359 0.516-2.234l-0.016-0.891v-12.703q0-0.047 0.008-0.406t0-0.57-0.023-0.602-0.055-0.656-0.102-0.57-0.172-0.492-0.25-0.281q-0.234-0.156-0.703-0.187t-0.828-0.031-0.641-0.219-0.281-0.703q0-0.406 0.187-0.75t0.562-0.344q0.719 0 2.164 0.055t2.164 0.055q0.656 0 1.977-0.055t1.977-0.055q0.391 0 0.586 0.344t0.195 0.75q0 0.469-0.266 0.68t-0.602 0.227-0.773 0.063-0.672 0.203q-0.547 0.328-0.547 2.5l0.016 5q0 0.328 0.016 0.5 0.203 0.047 0.609 0.047h10.922q0.391 0 0.594-0.047 0.016-0.172 0.016-0.5l0.016-5q0-2.172-0.547-2.5-0.281-0.172-0.914-0.195t-1.031-0.203-0.398-0.773q0-0.406 0.195-0.75t0.586-0.344q0.688 0 2.063 0.055t2.063 0.055q0.672 0 2.016-0.055t2.016-0.055q0.391 0 0.586 0.344t0.195 0.75q0 0.469-0.273 0.688t-0.625 0.227-0.805 0.047-0.688 0.195q-0.547 0.359-0.547 2.516l0.016 14.734q0 1.859 0.531 2.188 0.25 0.156 0.719 0.211t0.836 0.070 0.648 0.242 0.281 0.695q0 0.406-0.187 0.75t-0.562 0.344z"></path>
</svg>
