<?xml version="1.0" encoding="utf-8"?>
<!-- Generator: Adobe Illustrator 19.0.0, SVG Export Plug-In . SVG Version: 6.00 Build 0)  -->
<svg version="1.1" id="Layer_1" xmlns="http://www.w3.org/2000/svg" xmlns:xlink="http://www.w3.org/1999/xlink" x="0px" y="0px"
	 viewBox="0 0 16 16" style="enable-background:new 0 0 16 16;" xml:space="preserve">
<path d="M13.5,5v8c0,0.8-0.7,1.5-1.5,1.5H3c-0.8,0-1.5-0.7-1.5-1.5V4c0-0.8,0.7-1.5,1.5-1.5h9c0.7,0,1.3,0.5,1.5,1.2l2.4-1.4L13.5,5
	z M12.5,6.2L7.7,12L2.8,5.5l4.9,1.6l4.8-2.9V4c0-0.3-0.2-0.5-0.5-0.5H3C2.7,3.5,2.5,3.7,2.5,4v9c0,0.3,0.2,0.5,0.5,0.5h9
	c0.3,0,0.5-0.2,0.5-0.5V6.2z"/>
</svg>
