<?xml version="1.0" encoding="UTF-8" standalone="no"?>
<svg
   xmlns:dc="http://purl.org/dc/elements/1.1/"
   xmlns:cc="http://creativecommons.org/ns#"
   xmlns:rdf="http://www.w3.org/1999/02/22-rdf-syntax-ns#"
   xmlns:svg="http://www.w3.org/2000/svg"
   xmlns="http://www.w3.org/2000/svg"
   version="1.1"
   id="Layer_1"
   x="0px"
   y="0px"
   viewBox="0 0 16 16"
   style="enable-background:new 0 0 16 16;"
   xml:space="preserve"><metadata
     id="metadata8"><rdf:RDF><cc:Work
         rdf:about=""><dc:format>image/svg+xml</dc:format><dc:type
           rdf:resource="http://purl.org/dc/dcmitype/StillImage" /><dc:title></dc:title></cc:Work></rdf:RDF></metadata><defs
     id="defs6" /><path
     id="rect4140"
     d="M 0.4765625,4 A 0.47706934,0.47706934 0 0 0 0,4.4765625 L 0,11.523438 A 0.47706934,0.47706934 0 0 0 0.4765625,12 L 15.523438,12 A 0.47706934,0.47706934 0 0 0 16,11.523438 L 16,4.4765625 A 0.47706934,0.47706934 0 0 0 15.523438,4 L 0.4765625,4 Z m 0.4765625,0.953125 14.09375,0 0,6.09375 -14.09375,0 0,-6.09375 z"
     style="color:#000000;font-style:normal;font-variant:normal;font-weight:normal;font-stretch:normal;font-size:medium;line-height:normal;font-family:sans-serif;text-indent:0;text-align:start;text-decoration:none;text-decoration-line:none;text-decoration-style:solid;text-decoration-color:#000000;letter-spacing:normal;word-spacing:normal;text-transform:none;direction:ltr;block-progression:tb;writing-mode:lr-tb;baseline-shift:baseline;text-anchor:start;white-space:normal;clip-rule:nonzero;display:inline;overflow:visible;visibility:visible;opacity:1;isolation:auto;mix-blend-mode:normal;color-interpolation:sRGB;color-interpolation-filters:linearRGB;solid-color:#000000;solid-opacity:1;fill:#000000;fill-opacity:1;fill-rule:nonzero;stroke:none;stroke-width:0.95404327;stroke-linecap:butt;stroke-linejoin:round;stroke-miterlimit:4;stroke-dasharray:none;stroke-dashoffset:1.5;stroke-opacity:1;color-rendering:auto;image-rendering:auto;shape-rendering:auto;text-rendering:auto;enable-background:accumulate" /><g
     id="layer1"><g
       style="enable-background:new 0 0 16 16;font-style:normal;font-weight:normal;font-size:5px;line-height:125%;font-family:Sans;letter-spacing:0px;word-spacing:0px;fill:#000000;fill-opacity:1;stroke:none;stroke-width:1px;stroke-linecap:butt;stroke-linejoin:miter;stroke-opacity:1"
       id="text4203"><g
         id="g4212"
         transform="translate(0.10112835,0.1001358)"><path
           style="fill:#000000;fill-opacity:1"
           id="path4208"
           d="m 6.0690374,6.4093857 q -0.5371093,0 -0.8544922,0.4003906 -0.3149414,0.4003906 -0.3149414,1.0913086 0,0.6884766 0.3149414,1.0888672 0.3173829,0.4003906 0.8544922,0.4003906 0.5371094,0 0.8496094,-0.4003906 0.3149414,-0.4003906 0.3149414,-1.0888672 0,-0.690918 -0.3149414,-1.0913086 -0.3125,-0.4003906 -0.8496094,-0.4003906 z m 0,-0.4003906 q 0.7666016,0 1.225586,0.5151367 0.4589843,0.5126953 0.4589843,1.3769531 0,0.8618164 -0.4589843,1.3769531 -0.4589844,0.5126953 -1.225586,0.5126953 -0.7690429,0 -1.2304687,-0.5126953 -0.4589844,-0.5126953 -0.4589844,-1.3769531 0,-0.8642578 0.4589844,-1.3769531 0.4614258,-0.5151367 1.2304687,-0.5151367 z" /><path
           style="fill:#000000;fill-opacity:1"
           id="path4210"
           d="m 8.5250921,6.074913 0.4931641,0 0,1.5405274 1.6357418,-1.5405274 0.634766,0 -1.809082,1.6992188 1.938477,1.9458008 -0.649415,0 -1.7504878,-1.7553711 0,1.7553711 -0.4931641,0 0,-3.6450196 z" /></g></g></g></svg>