<?xml version="1.0" encoding="utf-8"?>
<!-- Generator: Adobe Illustrator 19.0.0, SVG Export Plug-In . SVG Version: 6.00 Build 0)  -->
<svg version="1.1" id="Layer_1" xmlns="http://www.w3.org/2000/svg" xmlns:xlink="http://www.w3.org/1999/xlink" x="0px" y="0px"
	 viewBox="0 0 16 16" style="enable-background:new 0 0 16 16;" xml:space="preserve">
<path d="M0,1h16V0H0V1z M0,3h16V2H0V3z M6,5v1h9V5H6z M15,14v-1H6v1H15z M6,10h9V9H6V10z M4,12l-2.5,1.5L0,13l1.5,2L4,12z M4,8
	L1.5,9.5L0,9l1.5,2L4,8z M4,4L1.5,5.5L0,5l1.5,2L4,4z"/>
</svg>
