<?xml version="1.0" encoding="utf-8"?>
<!-- Generator: Adobe Illustrator 19.0.0, SVG Export Plug-In . SVG Version: 6.00 Build 0)  -->
<svg version="1.1" id="Layer_1" xmlns="http://www.w3.org/2000/svg" xmlns:xlink="http://www.w3.org/1999/xlink" x="0px" y="0px"
	 viewBox="0 0 16 16" style="enable-background:new 0 0 16 16;" xml:space="preserve">
<path d="M15,1H1C0.4,1,0,1.4,0,2v12c0,0.6,0.4,1,1,1h14c0.6,0,1-0.4,1-1V2C16,1.4,15.6,1,15,1z M1,3.1h0.8v0.3H1V3.1z M1,3.6h0.8
	v0.3H1V3.6z M15,14H1V5.1h14V14z M15,4.9H1V4.6h14V4.9z M15,4.4H1V4.1h0.8v0.2h1.5V4.1h1.3v0.2H6V4.1h1.3v0.2h1.5V4.1H10v0.2h1.5
	V4.1h1.3v0.2h1.5V4.1H15V4.4z M4.5,3.6v0.3H3.3V3.6H4.5z M3.3,3.4V3.1h1.3v0.3H3.3z M7.3,3.6v0.3H6V3.6H7.3z M6,3.4V3.1h1.3v0.3H6z
	 M10,3.6v0.3H8.8V3.6H10z M8.8,3.4V3.1H10v0.3H8.8z M12.8,3.6v0.3h-1.3V3.6H12.8z M11.5,3.4V3.1h1.3v0.3H11.5z M15,3.9h-0.8V3.6H15
	V3.9z M15,3.4h-0.8V3.1H15V3.4z M15,2.9h-0.8V2.8h-1.5v0.2h-1.3V2.8H10v0.2H8.8V2.8H7.3v0.2H6V2.8H4.5v0.2H3.3V2.8H1.8v0.2H1V2.6h14
	V2.9z M15,2.4H1V2.1h14V2.4z M3,12v-1h10v1H3z M13,10H3V9h10V10z M11,8H3V7h8V8z"/>
</svg>
