<?xml version="1.0" encoding="utf-8"?>
<!-- Generated by IcoMoon.io -->
<!DOCTYPE svg PUBLIC "-//W3C//DTD SVG 1.1//EN" "http://www.w3.org/Graphics/SVG/1.1/DTD/svg11.dtd">
<svg version="1.1" xmlns="http://www.w3.org/2000/svg" xmlns:xlink="http://www.w3.org/1999/xlink" width="32" height="32" viewBox="0 0 32 32">
<path d="M12.048 16.961c-0.178 0.257-0.395 0.901-0.652 1.059-0.257 0.157-0.547 0.267-0.869 0.328-0.323 0.062-0.657 0.089-1.002 0.079v1.527h2.467v6.046h1.991v-9.996h-1.584c-0.056 0.381-0.173 0.7-0.351 0.957zM23 8h2c0.553 0 1-0.448 1-1v-6c0-0.552-0.447-1-1-1h-2c-0.553 0-1 0.448-1 1v6c0 0.552 0.447 1 1 1zM7 8h2c0.552 0 1-0.448 1-1v-6c0-0.552-0.448-1-1-1h-2c-0.552 0-1 0.448-1 1v6c0 0.552 0.448 1 1 1zM30 4h-2v5c0 0.552-0.447 1-1 1h-6c-0.553 0-1-0.448-1-1v-5h-8v5c0 0.552-0.448 1-1 1h-6c-0.552 0-1-0.448-1-1v-5h-2c-1.104 0-2 0.896-2 2v24c0 1.104 0.896 2 2 2h28c1.104 0 2-0.896 2-2v-24c0-1.104-0.896-2-2-2zM30 29c0 0.553-0.447 1-1 1h-26c-0.552 0-1-0.447-1-1v-16c0-0.552 0.448-1 1-1h26c0.553 0 1 0.448 1 1v16zM15.985 17.982h4.968c-0.936 1.152-1.689 2.325-2.265 3.705-0.575 1.381-0.638 2.818-0.749 4.312h2.131c0.009-0.666-0.195-1.385-0.051-2.156 0.146-0.771 0.352-1.532 0.617-2.285 0.267-0.752 0.598-1.461 0.996-2.127 0.396-0.667 0.853-1.229 1.367-1.686v-1.742h-7.015v1.979z"></path>
</svg>
