<?xml version="1.0" encoding="UTF-8" standalone="no"?>
<svg
   xmlns:dc="http://purl.org/dc/elements/1.1/"
   xmlns:cc="http://creativecommons.org/ns#"
   xmlns:rdf="http://www.w3.org/1999/02/22-rdf-syntax-ns#"
   xmlns:svg="http://www.w3.org/2000/svg"
   xmlns="http://www.w3.org/2000/svg"
   xml:space="preserve"
   style="enable-background:new 0 0 16 16;"
   viewBox="0 0 16 16"
   y="0px"
   x="0px"
   id="Layer_1"
   version="1.1"><metadata
     id="metadata4318"><rdf:RDF><cc:Work
         rdf:about=""><dc:format>image/svg+xml</dc:format><dc:type
           rdf:resource="http://purl.org/dc/dcmitype/StillImage" /><dc:title></dc:title></cc:Work></rdf:RDF></metadata><defs
     id="defs4316" /><g
     transform="matrix(0,1,-1,0,3.0984025,11.835155)"
     id="g7209"><path
       id="rect4860-3-5"
       d="m 4.1640625,-12.402344 a 0.50004997,0.50004997 0 0 0 -0.5,-0.5 l -5,0 -5,0 -5.0000005,0 a 0.50004997,0.50004997 0 0 0 -0.5,0.5 l 0,15.0000002 a 0.50004997,0.50004997 0 0 0 0.5,0.5 l 4.9648442,0 a 0.50004997,0.50004997 0 0 0 0.035156,0 l 4.9648437,0 a 0.50004997,0.50004997 0 0 0 0.035156,0 l 5,0 a 0.50004997,0.50004997 0 0 0 0.5,-0.5 l 0,-15.0000002 z m -1,0.5 0,14.0000002 -4,0 0,-14.0000002 4,0 z m -5,0 0,14.0000002 -4,0 0,-14.0000002 4,0 z m -5,0 0,14.0000002 -4.0000005,0 0,-14.0000002 4.0000005,0 z"
       style="color:#000000;font-style:normal;font-variant:normal;font-weight:normal;font-stretch:normal;font-size:medium;line-height:normal;font-family:sans-serif;text-indent:0;text-align:start;text-decoration:none;text-decoration-line:none;text-decoration-style:solid;text-decoration-color:#000000;letter-spacing:normal;word-spacing:normal;text-transform:none;direction:ltr;block-progression:tb;writing-mode:lr-tb;baseline-shift:baseline;text-anchor:start;white-space:normal;clip-rule:nonzero;display:inline;overflow:visible;visibility:visible;opacity:1;isolation:auto;mix-blend-mode:normal;color-interpolation:sRGB;color-interpolation-filters:linearRGB;solid-color:#000000;solid-opacity:1;fill:#000000;fill-opacity:1;fill-rule:nonzero;stroke:none;stroke-width:0.99999994;stroke-linecap:butt;stroke-linejoin:round;stroke-miterlimit:4;stroke-dasharray:none;stroke-dashoffset:0;stroke-opacity:1;color-rendering:auto;image-rendering:auto;shape-rendering:auto;text-rendering:auto;enable-background:accumulate" /></g></svg>