<?xml version="1.0" encoding="utf-8"?>
<!-- Generated by IcoMoon.io -->
<!DOCTYPE svg PUBLIC "-//W3C//DTD SVG 1.1//EN" "http://www.w3.org/Graphics/SVG/1.1/DTD/svg11.dtd">
<svg version="1.1" xmlns="http://www.w3.org/2000/svg" xmlns:xlink="http://www.w3.org/1999/xlink" width="32" height="32" viewBox="0 0 32 32">
<path id="Icon_metro-table" data-name="Icon metro-table" d="M2.571,3.856V30.849H33.419V3.856H2.571ZM14.139,21.208V15.424h7.712v5.784Zm7.712,1.928v5.784H14.139V23.136Zm0-15.424V13.5H14.139V7.712h7.712Zm-9.64,0V13.5H4.5V7.712h7.712ZM4.5,15.424h7.712v5.784H4.5V15.424Zm19.28,0h7.712v5.784H23.779V15.424Zm0-1.928V7.712h7.712V13.5ZM4.5,23.136h7.712v5.784H4.5V23.136Zm19.28,5.784V23.136h7.712v5.784Z" transform="translate(-2.571 -3.856)"></path>
</svg>
