<?xml version="1.0" encoding="utf-8"?>
<!-- Generator: Adobe Illustrator 19.0.0, SVG Export Plug-In . SVG Version: 6.00 Build 0)  -->
<svg version="1.1" id="Layer_1" xmlns="http://www.w3.org/2000/svg" xmlns:xlink="http://www.w3.org/1999/xlink" x="0px" y="0px"
	 viewBox="0 0 16 16" style="enable-background:new 0 0 16 16;" xml:space="preserve">
<path id="XMLID_10_" d="M15,4H4.5V3H6V2H4.5h-1H2v1h1.5v1H1C0.4,4,0,4.5,0,5v6c0,0.6,0.4,1,1,1h2.5v1H2v1h4v-1H4.5v-1H15
	c0.6,0,1-0.4,1-1V5C16,4.5,15.6,4,15,4z M1,11V5h2.5v6H1z M15,11H4.5V5H15V11z"/>
</svg>
