<?xml version="1.0" encoding="utf-8"?>
<!-- Generator: Adobe Illustrator 19.0.0, SVG Export Plug-In . SVG Version: 6.00 Build 0)  -->
<svg version="1.1" id="Layer_1" xmlns="http://www.w3.org/2000/svg" xmlns:xlink="http://www.w3.org/1999/xlink" x="0px" y="0px"
	 viewBox="0 0 16 16" style="enable-background:new 0 0 16 16;" xml:space="preserve">
<path id="XMLID_1_" d="M0,0v14h0c0,0.6,0.4,1,1,1h10c0.6,0,1-0.4,1-1h0V5h4V0H0z M1,1h10v3H1V1z M1,7h10v3H1V7z M1,14v-3h10v3H1z
	 M15,4h-3V1h3V4z M2,2h1v1H2V2z M2,12h1v1H2V12z M4,12h1v1H4V12z M6,12h1v1H6V12z M9,12v1H8v-1H9z M2,8h1v1H2V8z M4,8h1v1H4V8z M6,8
	h1v1H6V8z M13.5,3.1l-1-1.1h1.9L13.5,3.1z M2,6V5h1v1H2L2,6z M4,6V5h1v1H4L4,6z"/>
</svg>
