<?xml version="1.0" encoding="utf-8"?>
<!-- Generated by IcoMoon.io -->
<!DOCTYPE svg PUBLIC "-//W3C//DTD SVG 1.1//EN" "http://www.w3.org/Graphics/SVG/1.1/DTD/svg11.dtd">
<svg version="1.1" xmlns="http://www.w3.org/2000/svg" xmlns:xlink="http://www.w3.org/1999/xlink" width="20" height="28" viewBox="0 0 20 28">
<path fill="#444" d="M19.969 2.953v1.141q0 0.453-0.289 0.953t-0.664 0.5q-0.781 0-0.844 0.016-0.406 0.094-0.5 0.484-0.047 0.172-0.047 1v18q0 0.391-0.281 0.672t-0.672 0.281h-1.687q-0.391 0-0.672-0.281t-0.281-0.672v-19.031h-2.234v19.031q0 0.391-0.273 0.672t-0.68 0.281h-1.687q-0.406 0-0.68-0.281t-0.273-0.672v-7.75q-2.297-0.187-3.828-0.922-1.969-0.906-3-2.797-1-1.828-1-4.047 0-2.594 1.375-4.469 1.375-1.844 3.266-2.484 1.734-0.578 6.516-0.578h7.484q0.391 0 0.672 0.281t0.281 0.672z"></path>
</svg>
