<?xml version="1.0" encoding="utf-8"?>
<!-- Generator: Adobe Illustrator 19.0.0, SVG Export Plug-In . SVG Version: 6.00 Build 0)  -->
<svg version="1.1" id="Layer_1" xmlns="http://www.w3.org/2000/svg" xmlns:xlink="http://www.w3.org/1999/xlink" x="0px" y="0px"
	 viewBox="0 0 16 16" style="enable-background:new 0 0 16 16;" xml:space="preserve">
<path d="M0,1h16V0H0V1z M0,3h16V2H0V3z M5,6h10V5H5V6z M15,9H5v1h10V9z M15,14v-1H5v1H15z M1.5,7C0.7,7,0,6.3,0,5.5S0.7,4,1.5,4
	S3,4.7,3,5.5S2.3,7,1.5,7z M1.5,5C1.2,5,1,5.2,1,5.5S1.2,6,1.5,6S2,5.8,2,5.5S1.8,5,1.5,5z M1.5,11.1C0.7,11.1,0,10.4,0,9.6
	s0.7-1.5,1.5-1.5S3,8.7,3,9.6S2.3,11.1,1.5,11.1z M1.5,9.1C1.2,9.1,1,9.3,1,9.6s0.2,0.5,0.5,0.5S2,9.8,2,9.6S1.8,9.1,1.5,9.1z
	 M1.5,15C0.7,15,0,14.3,0,13.5S0.7,12,1.5,12S3,12.7,3,13.5S2.3,15,1.5,15z M1.5,13C1.2,13,1,13.2,1,13.5S1.2,14,1.5,14
	S2,13.8,2,13.5S1.8,13,1.5,13z"/>
</svg>
