<?xml version="1.0" encoding="utf-8"?>
<!-- Generator: Adobe Illustrator 19.0.0, SVG Export Plug-In . SVG Version: 6.00 Build 0)  -->
<svg version="1.1" id="Layer_1" xmlns="http://www.w3.org/2000/svg" xmlns:xlink="http://www.w3.org/1999/xlink" x="0px" y="0px"
	 viewBox="0 0 16 16" style="enable-background:new 0 0 16 16;" xml:space="preserve">
<path id="XMLID_1_" d="M3,11v-1h8v1H3L3,11z M3,7h10V6H3V7L3,7z M3,8v1h10V8H3L3,8z M13,4H3v1h10V4L13,4z M16,14V2c0-0.6-0.4-1-1-1
	H1C0.4,1,0,1.4,0,2v12c0,0.6,0.4,1,1,1h14C15.6,15,16,14.6,16,14z M15,2v12H1V2H15z"/>
</svg>
