<?xml version="1.0" encoding="utf-8"?><!DOCTYPE svg PUBLIC "-//W3C//DTD SVG 1.1//EN" "http://www.w3.org/Graphics/SVG/1.1/DTD/svg11.dtd"><svg xmlns="http://www.w3.org/2000/svg" xmlns:xlink="http://www.w3.org/1999/xlink"><symbol viewBox="0 0 16 16" id="f-i-autocomplete" xmlns="http://www.w3.org/2000/svg"><path d="M6 5h1v1H6V5zM4 4H3v1h1V4zm2 0H5v1h1V4zM2 5v1h1V5H2zm1 2h1V6H3v1zm2 0h1V6H5v1zM4 5v1h1V5H4zm-2 9h1v-1H2v1zm2 0h1v-1H4v1zm2 0h1v-1H6v1zm3-1H8v1h1v-1zm7-9.5v4c0 .8-.7 1.5-1.5 1.5H14v6c0 .6-.4 1-1 1H1c-.6 0-1-.4-1-1V3.5C0 2.7.7 2 1.5 2H8V1H6V0h5v1H9v1h5.5c.8 0 1.5.7 1.5 1.5zM13 12H1v3h12v-3zM3 11v-1H2v1h1zm2 0v-1H4v1h1zm10-7.5c0-.3-.2-.5-.5-.5H9v5H8V7H7V6h1V5H7V4h1V3H1.5c-.3 0-.5.2-.5.5v4c0 .3.2.5.5.5H8v1H6v1h5V9H9V8h5.5c.3 0 .5-.2.5-.5v-4z"/></symbol><symbol viewBox="0 0 32 32" id="f-i-bin" xmlns="http://www.w3.org/2000/svg"><path d="M4 10v20c0 1.1.9 2 2 2h18c1.1 0 2-.9 2-2V10H4zm6 18H8V14h2v14zm4 0h-2V14h2v14zm4 0h-2V14h2v14zm4 0h-2V14h2v14zM26.5 4H20V1.5c0-.825-.675-1.5-1.5-1.5h-7c-.825 0-1.5.675-1.5 1.5V4H3.5C2.675 4 2 4.675 2 5.5V8h26V5.5c0-.825-.675-1.5-1.5-1.5zM18 4h-6V2.025h6V4z"/></symbol><symbol viewBox="0 0 16 16" id="f-i-button" xmlns="http://www.w3.org/2000/svg"><path d="M.477 4A.477.477 0 0 0 0 4.477v7.046A.477.477 0 0 0 .477 12h15.046a.477.477 0 0 0 .477-.477V4.477A.477.477 0 0 0 15.523 4H.477zm.476.953h14.094v6.094H.953V4.953z" color="#000" font-weight="400" font-family="sans-serif" overflow="visible"/><g font-weight="400" font-size="5" font-family="Sans" letter-spacing="0" word-spacing="0"><path d="M6.17 6.51q-.537 0-.854.4Q5 7.31 5 8q0 .689.315 1.09.317.4.854.4.537 0 .85-.4.315-.401.315-1.09 0-.69-.315-1.091-.313-.4-.85-.4zm0-.4q.767 0 1.226.514.459.513.459 1.377 0 .862-.46 1.377-.458.513-1.225.513-.769 0-1.23-.513-.46-.513-.46-1.377t.46-1.377Q5.4 6.11 6.17 6.11zM8.626 6.175h.493v1.54l1.636-1.54h.635l-1.81 1.7 1.94 1.945h-.65L9.12 8.065V9.82h-.494V6.175z"/></g></symbol><symbol viewBox="0 0 32 32" id="f-i-calendar" xmlns="http://www.w3.org/2000/svg"><path d="M12.048 16.961c-.178.257-.395.901-.652 1.059a2.57 2.57 0 0 1-.869.328 4.594 4.594 0 0 1-1.002.079v1.527h2.467V26h1.991v-9.996h-1.584c-.056.381-.173.7-.351.957zM23 8h2a1 1 0 0 0 1-1V1a1 1 0 0 0-1-1h-2a1 1 0 0 0-1 1v6a1 1 0 0 0 1 1zM7 8h2a1 1 0 0 0 1-1V1a1 1 0 0 0-1-1H7a1 1 0 0 0-1 1v6a1 1 0 0 0 1 1zm23-4h-2v5a1 1 0 0 1-1 1h-6a1 1 0 0 1-1-1V4h-8v5a1 1 0 0 1-1 1H5a1 1 0 0 1-1-1V4H2a2 2 0 0 0-2 2v24a2 2 0 0 0 2 2h28a2 2 0 0 0 2-2V6a2 2 0 0 0-2-2zm0 25a1 1 0 0 1-1 1H3a1 1 0 0 1-1-1V13a1 1 0 0 1 1-1h26a1 1 0 0 1 1 1v16zM15.985 17.982h4.968c-.936 1.152-1.689 2.325-2.265 3.705-.575 1.381-.638 2.818-.749 4.312h2.131c.009-.666-.195-1.385-.051-2.156.146-.771.352-1.532.617-2.285.267-.752.598-1.461.996-2.127a7.049 7.049 0 0 1 1.367-1.686v-1.742h-7.015v1.979z"/></symbol><symbol viewBox="0 0 16 16" id="f-i-checkbox" xmlns="http://www.w3.org/2000/svg"><path d="M13.5 5v8c0 .8-.7 1.5-1.5 1.5H3c-.8 0-1.5-.7-1.5-1.5V4c0-.8.7-1.5 1.5-1.5h9c.7 0 1.3.5 1.5 1.2l2.4-1.4L13.5 5zm-1 1.2L7.7 12 2.8 5.5l4.9 1.6 4.8-2.9V4c0-.3-.2-.5-.5-.5H3c-.3 0-.5.2-.5.5v9c0 .3.2.5.5.5h9c.3 0 .5-.2.5-.5V6.2z"/></symbol><symbol viewBox="0 0 16 16" id="f-i-checkbox-group" xmlns="http://www.w3.org/2000/svg"><path d="M0 1h16V0H0v1zm0 2h16V2H0v1zm6 2v1h9V5H6zm9 9v-1H6v1h9zm-9-4h9V9H6v1zm-2 2l-2.5 1.5L0 13l1.5 2L4 12zm0-4L1.5 9.5 0 9l1.5 2L4 8zm0-4L1.5 5.5 0 5l1.5 2L4 4z"/></symbol><symbol viewBox="0 0 16 16" id="f-i-columns" xmlns="http://www.w3.org/2000/svg"><path d="M16 .5a.5.5 0 0 0-.5-.5H.5a.5.5 0 0 0-.5.5v15a.5.5 0 0 0 .5.5h15a.5.5 0 0 0 .5-.5V.5zM15 1v14h-4V1h4zm-5 0v14H6V1h4zM5 1v14H1V1h4z" color="#000" font-weight="400" font-family="sans-serif" overflow="visible"/></symbol><symbol viewBox="0 0 32 32" id="f-i-copy" xmlns="http://www.w3.org/2000/svg"><path d="M20 8V0H6L0 6v18h12v8h20V8H20zM6 2.828V6H2.828L6 2.828zM2 22V8h6V2h10v6l-6 6v8H2zm16-11.172V14h-3.172L18 10.828zM30 30H14V16h6v-6h10v20z"/></symbol><symbol viewBox="0 0 15 15" id="f-i-divider" xmlns="http://www.w3.org/2000/svg"><path d="M0 7h15v1H0z"/></symbol><symbol viewBox="0 0 28 32" id="f-i-edit" xmlns="http://www.w3.org/2000/svg"><path d="M22 2l-4 4 6 6 4-4-6-6zM0 24l.021 6.018L6 30l16-16-6-6L0 24zm6 4H2v-4h2v2h2v2z"/></symbol><symbol viewBox="0 0 32 32" id="f-i-floppy-disk" xmlns="http://www.w3.org/2000/svg"><path d="M28 0H0v32h32V4l-4-4zM16 4h4v8h-4V4zm12 24H4V4h2v10h18V4h2.343L28 5.657V28z"/></symbol><symbol viewBox="0 0 16 16" id="f-i-handle" xmlns="http://www.w3.org/2000/svg"><path d="M2 5h2v2H2zM7 5h2v2H7zM12 5h2v2h-2z"/><g><path d="M2 9h2v2H2zM7 9h2v2H7zM12 9h2v2h-2z"/></g></symbol><symbol viewBox="0 0 448 512" id="f-i-hash" xmlns="http://www.w3.org/2000/svg"><path d="M448 192v-64h-80.064l16-128h-64l-16 128H175.968l16-128h-64l-16 128H0v64h103.968L88 320H0v64h80L64 512h64l16-128h127.968l-16 128H320l16-128h112v-64H344l15.936-128H448zM279.968 320H152l15.968-128h127.968l-15.968 128z"/></symbol><symbol viewBox="0 0 28 28" id="f-i-header" xmlns="http://www.w3.org/2000/svg"><path d="M26.281 26q-.688 0-2.07-.055t-2.086-.055q-.688 0-2.063.055T17.999 26q-.375 0-.578-.32t-.203-.711q0-.484.266-.719t.609-.266.797-.109.703-.234q.516-.328.516-2.188l-.016-6.109q0-.328-.016-.484-.203-.063-.781-.063H8.749q-.594 0-.797.063-.016.156-.016.484l-.016 5.797q0 2.219.578 2.562.25.156.75.203t.891.055.703.234.313.711q0 .406-.195.75t-.57.344q-.734 0-2.18-.055t-2.164-.055q-.672 0-2 .055T2.062 26q-.359 0-.555-.328t-.195-.703q0-.469.242-.703t.562-.273.742-.117.656-.234q.516-.359.516-2.234l-.016-.891V7.814l.008-.406q.008-.359 0-.57t-.023-.602-.055-.656-.102-.57-.172-.492-.25-.281q-.234-.156-.703-.187t-.828-.031-.641-.219-.281-.703q0-.406.187-.75t.562-.344q.719 0 2.164.055t2.164.055q.656 0 1.977-.055t1.977-.055q.391 0 .586.344t.195.75q0 .469-.266.68t-.602.227-.773.063-.672.203q-.547.328-.547 2.5l.016 5q0 .328.016.5.203.047.609.047h10.922q.391 0 .594-.047.016-.172.016-.5l.016-5q0-2.172-.547-2.5-.281-.172-.914-.195t-1.031-.203-.398-.773q0-.406.195-.75t.586-.344q.688 0 2.063.055t2.063.055q.672 0 2.016-.055t2.016-.055q.391 0 .586.344t.195.75q0 .469-.273.688t-.625.227-.805.047-.688.195Q24 4.615 24 6.772l.016 14.734q0 1.859.531 2.188.25.156.719.211t.836.07.648.242.281.695q0 .406-.187.75t-.562.344z"/></symbol><symbol viewBox="0 0 16 16" id="f-i-hidden" xmlns="http://www.w3.org/2000/svg"><path d="M1 5h1V4H1zM3 5h1V4H3zM5 5h1V4H5zM7 5h1V4H7zM9 5h1V4H9zM11 5h1V4h-1zM13 5h1V4h-1zM0 6h1V5H0zM15 7h1V6h-1zM0 8h1V7H0zM15 9h1V8h-1zM0 10h1V9H0zM15 11h1v-1h-1zM2 12h1v-1H2zM4 12h1v-1H4zM6 12h1v-1H6zM8 12h1v-1H8zM10 12h1v-1h-1zM12 12h1v-1h-1zM14 12h1v-1h-1zM15 5h1V4h-1zM0 12h1v-1H0z" color="#000" font-weight="400" font-family="sans-serif" overflow="visible"/></symbol><symbol viewBox="0 0 384 512" id="f-i-menu" xmlns="http://www.w3.org/2000/svg"><path d="M0 96v64h384V96H0zm0 192h384v-64H0v64zm0 128h384v-64H0v64z"/></symbol><symbol viewBox="0 0 16 32" id="f-i-minus" xmlns="http://www.w3.org/2000/svg"><path d="M0 14v4h16v-4H0z"/></symbol><symbol viewBox="0 0 512 512" id="f-i-move" xmlns="http://www.w3.org/2000/svg"><path d="M287.744 94.736v129.008h128v-64L512 256l-96.256 96.24v-65.488h-128V415.76h64.496L256 512l-96.256-96.24h64V286.752h-128v64.992L0 256l95.744-95.744v63.488h128V94.736h-62.496L256 0l94.752 94.736h-63.008z"/></symbol><symbol viewBox="0 0 512 512" id="f-i-move-vertical" xmlns="http://www.w3.org/2000/svg"><path d="M287.744 94.736V415.76h64.496L256 512l-96.256-96.24h64V94.736h-62.496L256 0l94.752 94.736z"/></symbol><symbol viewBox="0 0 20 28" id="f-i-paragraph" xmlns="http://www.w3.org/2000/svg"><path d="M19.969 2.953v1.141q0 .453-.289.953t-.664.5q-.781 0-.844.016-.406.094-.5.484-.047.172-.047 1v18q0 .391-.281.672t-.672.281h-1.687q-.391 0-.672-.281t-.281-.672V6.016h-2.234v19.031q0 .391-.273.672t-.68.281H9.158q-.406 0-.68-.281t-.273-.672v-7.75q-2.297-.187-3.828-.922-1.969-.906-3-2.797-1-1.828-1-4.047 0-2.594 1.375-4.469 1.375-1.844 3.266-2.484Q6.752 2 11.534 2h7.484q.391 0 .672.281t.281.672z"/></symbol><symbol viewBox="0 0 578.106 578.106" id="f-i-phone-receiver" xmlns="http://www.w3.org/2000/svg"><path d="M577.83 456.128c1.225 9.385-1.635 17.545-8.568 24.48l-81.396 80.781c-3.672 4.08-8.465 7.551-14.381 10.404-5.916 2.857-11.729 4.693-17.439 5.508-.408 0-1.635.105-3.676.309-2.037.203-4.689.307-7.953.307-7.754 0-20.301-1.326-37.641-3.979s-38.555-9.182-63.645-19.584c-25.096-10.404-53.553-26.012-85.376-46.818-31.823-20.805-65.688-49.367-101.592-85.68-28.56-28.152-52.224-55.08-70.992-80.783-18.768-25.705-33.864-49.471-45.288-71.299-11.425-21.828-19.993-41.616-25.705-59.364S4.59 177.362 2.55 164.51-.306 141.56.102 134.216c.408-7.344.612-11.424.612-12.24.816-5.712 2.652-11.526 5.508-17.442s6.324-10.71 10.404-14.382L98.022 8.756c5.712-5.712 12.24-8.568 19.584-8.568 5.304 0 9.996 1.53 14.076 4.59s7.548 6.834 10.404 11.322l65.484 124.236c3.672 6.528 4.692 13.668 3.06 21.42-1.632 7.752-5.1 14.28-10.404 19.584l-29.988 29.988c-.816.816-1.53 2.142-2.142 3.978s-.918 3.366-.918 4.59c1.632 8.568 5.304 18.36 11.016 29.376 4.896 9.792 12.444 21.726 22.644 35.802s24.684 30.293 43.452 48.653c18.36 18.77 34.68 33.354 48.96 43.76 14.277 10.4 26.215 18.053 35.803 22.949 9.588 4.896 16.932 7.854 22.031 8.871l7.648 1.531c.816 0 2.145-.307 3.979-.918 1.836-.613 3.162-1.326 3.979-2.143l34.883-35.496c7.348-6.527 15.912-9.791 25.705-9.791 6.938 0 12.443 1.223 16.523 3.672h.611l118.115 69.768c8.571 5.308 13.67 12.038 15.303 20.198z"/></symbol><symbol viewBox="0 0 16 16" id="f-i-radio-group" xmlns="http://www.w3.org/2000/svg"><path d="M0 1h16V0H0v1zm0 2h16V2H0v1zm5 3h10V5H5v1zm10 3H5v1h10V9zm0 5v-1H5v1h10zM1.5 7C.7 7 0 6.3 0 5.5S.7 4 1.5 4 3 4.7 3 5.5 2.3 7 1.5 7zm0-2c-.3 0-.5.2-.5.5s.2.5.5.5.5-.2.5-.5-.2-.5-.5-.5zm0 6.1c-.8 0-1.5-.7-1.5-1.5s.7-1.5 1.5-1.5S3 8.7 3 9.6s-.7 1.5-1.5 1.5zm0-2c-.3 0-.5.2-.5.5s.2.5.5.5.5-.3.5-.5-.2-.5-.5-.5zm0 5.9C.7 15 0 14.3 0 13.5S.7 12 1.5 12s1.5.7 1.5 1.5S2.3 15 1.5 15zm0-2c-.3 0-.5.2-.5.5s.2.5.5.5.5-.2.5-.5-.2-.5-.5-.5z"/></symbol><symbol viewBox="0 0 512 512" id="f-i-remove" xmlns="http://www.w3.org/2000/svg"><path d="M44.491 106.237l61.746-61.746L467.51 405.763l-61.746 61.746z"/><path d="M405.763 44.491l61.746 61.746L106.237 467.51l-61.746-61.746z"/></symbol><symbol viewBox="0 0 16 16" id="f-i-rich-text" xmlns="http://www.w3.org/2000/svg"><path d="M15 1H1c-.6 0-1 .4-1 1v12c0 .6.4 1 1 1h14c.6 0 1-.4 1-1V2c0-.6-.4-1-1-1zM1 3.1h.8v.3H1v-.3zm0 .5h.8v.3H1v-.3zM15 14H1V5.1h14V14zm0-9.1H1v-.3h14v.3zm0-.5H1v-.3h.8v.2h1.5v-.2h1.3v.2H6v-.2h1.3v.2h1.5v-.2H10v.2h1.5v-.2h1.3v.2h1.5v-.2h.7v.3zM4.5 3.6v.3H3.3v-.3h1.2zm-1.2-.2v-.3h1.3v.3H3.3zm4 .2v.3H6v-.3h1.3zM6 3.4v-.3h1.3v.3H6zm4 .2v.3H8.8v-.3H10zm-1.2-.2v-.3H10v.3H8.8zm4 .2v.3h-1.3v-.3h1.3zm-1.3-.2v-.3h1.3v.3h-1.3zm3.5.5h-.8v-.3h.8v.3zm0-.5h-.8v-.3h.8v.3zm0-.5h-.8v-.1h-1.5V3h-1.3v-.2H10V3H8.8v-.2H7.3V3H6v-.2H4.5V3H3.3v-.2H1.8V3H1v-.4h14v.3zm0-.5H1v-.3h14v.3zM3 12v-1h10v1H3zm10-2H3V9h10v1zm-2-2H3V7h8v1z"/></symbol><symbol viewBox="0 0 16 16" id="f-i-rows" xmlns="http://www.w3.org/2000/svg"><path d="M15.5 16a.5.5 0 0 0 .5-.5V.5a.5.5 0 0 0-.5-.5H.5a.5.5 0 0 0-.5.5v4.964A.5.5 0 0 0 0 5.5v4.965a.5.5 0 0 0 0 .035v5a.5.5 0 0 0 .5.5h15zm-.5-1H1v-4h14v4zm0-5H1V6h14v4zm0-5H1V1h14v4z" color="#000" font-weight="400" font-family="sans-serif" overflow="visible"/></symbol><symbol viewBox="0 0 16 16" id="f-i-select" xmlns="http://www.w3.org/2000/svg"><path d="M0 0v14c0 .6.4 1 1 1h10c.6 0 1-.4 1-1V5h4V0H0zm1 1h10v3H1V1zm0 6h10v3H1V7zm0 7v-3h10v3H1zM15 4h-3V1h3v3zM2 2h1v1H2V2zm0 10h1v1H2v-1zm2 0h1v1H4v-1zm2 0h1v1H6v-1zm3 0v1H8v-1h1zM2 8h1v1H2V8zm2 0h1v1H4V8zm2 0h1v1H6V8zm7.5-4.9l-1-1.1h1.9l-.9 1.1zM2 6V5h1v1H2zm2 0V5h1v1H4z"/></symbol><symbol viewBox="0 0 448 512" id="f-i-settings" xmlns="http://www.w3.org/2000/svg"><path d="M223.969 175C179.266 175 143 211.266 143 256c0 44.688 36.266 81.031 80.969 81.031 44.719 0 80.719-36.344 80.719-81.031 0-44.734-36-81-80.719-81zm162.344 127.531l-14.594 35.156 29.469 57.875-36.094 36.094-59.218-27.969-35.156 14.438-17.844 54.625-2.281 7.25h-51.016l-22.078-61.656-35.156-14.5-57.952 29.344-36.078-36.063 27.938-59.25-14.484-35.125L.002 282.594V231.61l61.703-22.109 14.485-35.094-25.953-51.234-3.422-6.719 36.031-36.031 59.297 27.922 35.109-14.516 17.828-54.594 2.297-7.234h51l22.094 61.734 35.063 14.516 58.031-29.406 36.063 36.031-27.938 59.203 14.438 35.172 61.875 20.125v50.969l-61.688 22.187z"/></symbol><symbol viewBox="0 0 16 16" id="f-i-text-input" xmlns="http://www.w3.org/2000/svg"><path d="M15 4H4.5V3H6V2H2v1h1.5v1H1c-.6 0-1 .5-1 1v6c0 .6.4 1 1 1h2.5v1H2v1h4v-1H4.5v-1H15c.6 0 1-.4 1-1V5c0-.5-.4-1-1-1zM1 11V5h2.5v6H1zm14 0H4.5V5H15v6z"/></symbol><symbol viewBox="0 0 16 16" id="f-i-textarea" xmlns="http://www.w3.org/2000/svg"><path d="M3 11v-1h8v1H3zm0-4h10V6H3v1zm0 1v1h10V8H3zm10-4H3v1h10V4zm3 10V2c0-.6-.4-1-1-1H1c-.6 0-1 .4-1 1v12c0 .6.4 1 1 1h14c.6 0 1-.4 1-1zM15 2v12H1V2h14z"/></symbol><symbol viewBox="0 0 24 32" id="f-i-triangle-down" xmlns="http://www.w3.org/2000/svg"><path d="M0 12l11.992 11.992L23.984 12H0z"/></symbol><symbol viewBox="0 0 12 32" id="f-i-triangle-left" xmlns="http://www.w3.org/2000/svg"><path d="M0 15.996l11.992 11.992V4.004L0 15.996z"/></symbol><symbol viewBox="0 0 12 32" id="f-i-triangle-right" xmlns="http://www.w3.org/2000/svg"><path d="M.002 4.008L11.994 16 .002 27.992V4.008z"/></symbol><symbol viewBox="0 0 24 32" id="f-i-triangle-up" xmlns="http://www.w3.org/2000/svg"><path d="M11.992 8L0 19.992h23.984L11.992 8z"/></symbol><symbol viewBox="0 0 512 512" id="f-i-upload" xmlns="http://www.w3.org/2000/svg"><path d="M240 352H0v128h480V352H240zm208 64h-64v-32h64v32zM112 160L240 32l128 128h-80v160h-96V160z"/></symbol></svg>