<svg xmlns="http://www.w3.org/2000/svg" viewBox="0 0 300 201.316"><path d="M33.394 74.641c3.721-4.502 8.216-8.197 12.901-11.045a72.775 72.775 0 0 1 14.912-6.894c2.407-.799 5.153-1.473 8.228-2.033a35.337 35.337 0 0 1 9.167-.466c3.036.243 5.872 1.018 8.504 2.312 2.632 1.294 4.76 3.411 6.146 6.257a5.89 5.89 0 0 1 .583 2.117c.054.693-.055 1.312-.32 1.852-.265.541-.704.958-1.318 1.247-.616.291-1.409.399-2.336.293-1.178-.136-2.604-.326-4.234-.523a73.063 73.063 0 0 0-5.12-.43 46.106 46.106 0 0 0-5.384.052c-1.808.123-4.09.255-5.22.927-2.388 1.42-5 5.503-7.179 8.714-2.181 3.212-6.113 9.841-6.113 9.841.094.146 3.07-.233 4.721-.329a29.614 29.614 0 0 1 4.969.129c1.66.182 3.265.572 4.813 1.172 1.549.601 2.967 1.464 4.155 2.596.386.368.636.82.745 1.32.109.501.091.975-.05 1.427a2.264 2.264 0 0 1-.81 1.134c-.397.303-.949.406-1.627.337-1.6-.161-3.463.064-5.506.616a57.093 57.093 0 0 0-6.399 2.168 121.725 121.725 0 0 0-6.791 2.986c-2.307 1.097-5.633 2.124-6.689 3.256-1.548 1.659-2.452 6.506-3.347 9.819-.896 3.314-1.292 6.63-1.19 9.935.026.844.038 1.713.033 2.595a8.986 8.986 0 0 1-.347 2.484 5.576 5.576 0 0 1-1.106 2.059c-.511.603-1.266.976-2.258 1.117-1.118.16-2.096-.092-2.927-.755-.832-.662-1.541-1.523-2.134-2.58a16.033 16.033 0 0 1-1.417-3.39c-.35-1.2-.609-2.3-.755-3.273-.501-3.336.247-10.21.247-10.21-.152-.114-3.179 1.612-4.519 2.184-1.262.538-2.265.362-2.913-.491-.65-.852-.667-2.006-.106-3.44 1.579-4.033 3.634-7.453 6.234-10.099s6.349-4.734 7.854-6.372c1.223-1.332 2.29-4.361 3.456-6.365 1.368-2.353 2.846-4.792 4.456-7.233s5.119-7.087 5.119-7.087c-.075-.105-6.024 2.086-8.988 3.124-2.964 1.038-5.951 2.17-8.876 3.432-.797.345-1.41.424-1.822.209-.413-.214-.655-.565-.732-1.059-.076-.489-.002-1.07.226-1.729a6.13 6.13 0 0 1 1.064-1.908zM125.258 85.469c.604-.167 1.085-.163 1.443.013.356.177.586.432.691.762.104.331.071.706-.104 1.119-.175.414-.501.771-.953 1.08-2.562 1.75-5.252 3.317-8.048 4.582-2.797 1.265-7.625 1.897-8.251 2.595-.522.582-.495 4.128-1.11 6.204a57.754 57.754 0 0 1-2.036 5.779 46.569 46.569 0 0 1-4.858 8.808 31.87 31.87 0 0 1-3.252 3.917 17.825 17.825 0 0 1-3.845 3.003c-2.208 1.271-4.396 1.847-6.554 1.707-2.16-.14-4.091-.801-5.791-2.007-1.7-1.204-3.041-2.865-4.019-4.973-.979-2.106-1.35-4.459-1.164-7.01a37.471 37.471 0 0 1 2.67-11.406c1.524-3.752 3.508-7.077 5.875-9.956 1.129-1.373 2.367-2.661 3.713-3.821s2.854-2.064 4.38-2.768a9.363 9.363 0 0 1 1.667-.578c.651-.159 1.315-.27 1.994-.331a7.304 7.304 0 0 1 1.972.084c.635.115 1.305.52 1.743.649.874.257 2.402.433 3.55 1.185 1.147.753 2.236 2.39 2.968 2.829 1.703 1.024 6.169.532 8.899.208a57.298 57.298 0 0 0 8.42-1.674zm-35.202 16.485a33.418 33.418 0 0 0-2.409 6.147c-.591 2.114-.935 3.939-1.029 5.458-.093 1.52.117 2.547.625 3.072.509.528 1.429.198 2.675-.98a31.385 31.385 0 0 0 2.959-3.245c.879-1.103 1.714-2.341 2.523-3.631.823-1.313 1.628-2.691 2.335-4.115.705-1.421 1.358-2.891 1.831-4.345.223-.688.425-1.452.636-2.234.209-.782.583-2.273.415-2.515-.156-.221-1.388-.511-2.033-.938-.647-.427-1.666-1.833-1.851-1.852-.471-.05-2.614 2.654-3.735 4.259a40.54 40.54 0 0 0-2.942 4.919z"/><path d="M122.623 93.443c-2.958-.478-5.34-1.042-6.707-2.037s-2.134-2.325-2.269-3.964c-.083-1.011.128-2.025.613-3.021a7.98 7.98 0 0 1 1.958-2.561 8.409 8.409 0 0 1 2.726-1.596c.998-.352 2.014-.463 2.979-.291 1.205.215 2.181.765 2.863 1.555.68.793.928 2.363 1.206 2.688.359.419 2.319.734 3.412 1.193a11.438 11.438 0 0 1 2.938 1.782 8.052 8.052 0 0 1 2.048 2.589c.5 1 .73 2.215.676 3.634-.049 1.327-.318 2.658-.793 3.986a29.477 29.477 0 0 1-1.775 3.978 76.244 76.244 0 0 1-2.201 3.843 62.414 62.414 0 0 0-2.065 3.645 21.27 21.27 0 0 0-1.086 2.412c-.282.765-.379 1.336-.297 1.714.082.379.376.474.887.293.511-.182 1.357-.792 2.544-1.829a50.235 50.235 0 0 0 5.45-5.563c1.671-1.997 3.343-4.052 5.022-5.946.305-.344.632-.688.951-1.033a2.29 2.29 0 0 1 1.104-.688c.459-.119.827-.061 1.092.162.265.223.43.52.488.892.058.374-.098 1.011-.467 1.92-.371.91-.812 1.873-1.318 2.886a46.835 46.835 0 0 1-1.565 2.87c-.534.901-.907 1.565-1.13 1.945-.771 1.315-1.734 2.752-2.787 4.292a29.612 29.612 0 0 1-3.559 4.281 17.333 17.333 0 0 1-4.299 3.159 8.545 8.545 0 0 1-4.923.918c-2.019-.213-3.6-1.103-4.726-2.677-1.128-1.573-1.724-3.4-1.787-5.481-.051-1.643.304-3.432 1.066-5.351a59.514 59.514 0 0 1 2.502-5.493 172.027 172.027 0 0 1 2.526-4.707c.777-1.39 1.156-2.439 1.134-3.159-.011-.382-.327-.667-.941-.852-.618-.178-1.127-.329-1.49-.388z"/><path d="M144.678 117.902c-.75 1.085-1.761 1.795-2.993 2.123-1.232.325-2.402.112-3.498-.587-1.264-.806-2.032-1.955-2.219-3.46-.187-1.503-.083-3.102.31-4.785a27.438 27.438 0 0 1 1.644-4.896c.703-1.579 1.29-2.887 1.778-3.889a69.447 69.447 0 0 1 2.526-4.68 314.3 314.3 0 0 1 2.741-4.581c.669-1.1 1.416-2.295 2.244-3.581.827-1.287 1.379-2.502 1.615-3.619.292-1.39.954-2.369 2.017-2.902 1.061-.533 2.145-.69 3.252-.481 1.108.212 2.075.747 2.899 1.604.823.859 1.016 3.293 1.016 3.293.02.009.717-.913 1.08-1.333.362-.421.724-.854 1.088-1.262.747-.838 1.646-1.643 2.632-2.41a10.688 10.688 0 0 1 3.111-1.713 8.875 8.875 0 0 1 3.36-.469c1.149.061 2.272.502 3.376 1.303 1.479 1.075 2.432 2.339 2.828 3.796.397 1.458.173 4.549.173 4.549.025.011 1.383-1.896 2.127-2.822a41.09 41.09 0 0 1 2.344-2.668 15.383 15.383 0 0 1 2.846-2.313 12.603 12.603 0 0 1 3.362-1.524 7.933 7.933 0 0 1 3.546-.178c1.2.207 2.374.777 3.462 1.708.912.781 1.551 1.667 1.906 2.608.356.944.534 1.93.521 2.957a10.516 10.516 0 0 1-.509 3.052 24.252 24.252 0 0 1-1.072 2.833c-.507 1.094-1.15 2.25-1.863 3.448a100.271 100.271 0 0 1-2.208 3.54 259.164 259.164 0 0 1-2.282 3.434 99.354 99.354 0 0 0-2.019 3.12c-.393.633-.662 1.197-.788 1.689-.126.494-.106.863.063 1.1.171.238.505.272.99.1.485-.174 1.169-.63 2.03-1.365.958-.82 2.063-1.855 3.315-3.079 1.25-1.224 2.461-2.41 3.619-3.573 1.16-1.163 2.18-2.222 3.065-3.171.884-.95 1.477-1.551 1.734-1.815.362-.372.753-.606 1.174-.631.42-.024.778.059 1.066.252s.461.498.521.909c.059.412-.069.86-.382 1.338a73.917 73.917 0 0 1-1.517 2.201c-.606.858-1.24 1.749-1.914 2.679-.675.93-1.362 1.862-2.061 2.797-.696.936-1.337 1.834-1.923 2.613-.775 1.029-1.717 2.128-2.711 3.287a18.458 18.458 0 0 1-3.282 3.006 12.135 12.135 0 0 1-3.845 1.829c-1.372.374-2.847.273-4.399-.258-1.4-.478-2.511-1.185-3.267-2.137a7.592 7.592 0 0 1-1.507-3.239 10.573 10.573 0 0 1-.08-3.745 16.559 16.559 0 0 1 1.011-3.711 35.56 35.56 0 0 1 2.315-4.745 54.662 54.662 0 0 1 2.884-4.458c2.218-3.067 3.162-4.826 2.749-5.311-.414-.484-1.854.285-4.319 2.258a35.765 35.765 0 0 0-3.762 3.462 94.607 94.607 0 0 0-3.396 3.833 81.42 81.42 0 0 0-3.853 4.983c-1.213 1.704-2.368 3.479-3.353 5.295a34.942 34.942 0 0 0-1.223 2.521c-.372.842-.574 1.741-.654 2.644a4.095 4.095 0 0 1-.711 1.929 4.718 4.718 0 0 1-1.505 1.427c-.599.357-1.284.568-2.056.639-.771.072-1.544-.122-2.298-.509-1.057-.543-1.832-1.278-2.213-2.25-.381-.971-.558-2.026-.522-3.164.035-1.136.213-2.279.529-3.43.315-1.148.633-2.196.993-3.065.695-1.678 1.583-3.36 2.518-4.985.934-1.625 1.912-3.234 2.874-4.818 1.344-2.215 2.109-3.779 2.318-4.63.207-.85.054-1.245-.46-1.188-.515.058-1.282.465-2.313 1.226a35.815 35.815 0 0 0-3.189 2.675 52.49 52.49 0 0 0-3.067 3.12c-.953 1.053-1.642 1.869-2.033 2.439-2.074 3.032-3.576 5.685-4.544 7.72-.969 2.035-1.664 3.714-2.092 5.027s-.716 2.337-.856 3.072c-.14.736-.41 1.41-.814 1.992z"/><path d="M208.403 107.733c1.127.759 2.431 1.109 3.858 1.063s2.909-.343 4.438-.875a27.564 27.564 0 0 0 4.606-2.112 54.867 54.867 0 0 0 4.378-2.77 50.394 50.394 0 0 0 3.705-2.851c1.095-.934 1.97-1.728 2.589-2.387.453-.482.92-.77 1.387-.825.465-.057.851.036 1.164.268.311.232.511.587.597 1.064.085.478 0 .994-.269 1.518a33.446 33.446 0 0 1-9.686 11.483c-1.261.945-2.683 1.823-4.179 2.634a26.213 26.213 0 0 1-4.679 1.978 21.253 21.253 0 0 1-4.961.938c-1.682.114-3.381-.098-5.077-.596-2.02-.593-3.663-1.441-4.894-2.579s-2.125-2.427-2.686-3.875c-.561-1.446-.833-3.016-.813-4.698.019-1.683.247-3.37.688-5.056a25.764 25.764 0 0 1 1.819-4.883c.77-1.572 1.598-3.005 2.501-4.243.883-1.209 1.905-2.406 3.018-3.583a24.637 24.637 0 0 1 3.66-3.187 21.872 21.872 0 0 1 4.252-2.361c1.503-.63 3.101-1 4.778-1.132 1.954-.153 3.88.163 5.754.953 1.873.789 3.348 1.999 4.431 3.611 1.026 1.532 1.539 3.085 1.518 4.669-.021 1.585-.401 3.099-1.13 4.551-.728 1.454-1.726 2.792-2.998 4.022-1.275 1.23-2.633 2.227-4.056 2.991-2.347 1.26-4.701 1.997-7.063 2.166-2.36.17-6.555-.986-7.154-.665-.298.162-.51 1.918-.507 2.779.006.864.342 1.541 1.011 1.99zm6.211-10.468c1.794-.613 3.341-1.719 4.611-3.111.308-.335.7-.84 1.147-1.512a6.22 6.22 0 0 0 .854-1.957c.167-.688.104-1.15-.322-1.305s-.928-.136-1.477.012a6.744 6.744 0 0 0-2.246 1.082 31.212 31.212 0 0 0-1.884 1.482 23.027 23.027 0 0 0-2.66 2.738c-.813.982-2.236 3.012-2.229 3.026.095.191 2.927-.019 4.206-.455z"/><path d="M263.658 93.833c-.112 1.645-.521 3.31-1.146 4.942a38.216 38.216 0 0 1-2.067 4.517 31.671 31.671 0 0 1-2.172 3.445 33.223 33.223 0 0 1-2.739 3.312c-.998 1.06-2.094 2.031-3.283 2.919s-2.477 1.601-3.86 2.136c-2.219.855-4.41 1.154-6.574.864-2.163-.289-4.089-.994-5.784-2.118a11.965 11.965 0 0 1-4.005-4.396c-.97-1.807-1.327-3.773-1.126-5.846a24.568 24.568 0 0 1 2.735-9.122 27.258 27.258 0 0 1 5.944-7.631 25.692 25.692 0 0 1 3.739-2.792c1.354-.827 2.861-1.427 4.403-1.866a10.14 10.14 0 0 1 1.667-.322c.653-.07 1.33-.101 2.012-.089a9.034 9.034 0 0 1 1.964.248c.636.151 1.288.539 1.745.691.462.154 1.419.279 2.437.63 1.015.351 2.01.952 2.972 1.796.96.846 1.756 1.968 2.386 3.369.624 1.402.898 3.201.752 5.313zm-20.036 3.407a22.397 22.397 0 0 0-2.445 4.822c-.604 1.678-.958 3.138-1.062 4.372-.101 1.234.097 2.092.604 2.564.508.474 1.429.281 2.687-.58a25.527 25.527 0 0 0 2.981-2.398c.885-.826 1.735-1.798 2.551-2.759a27.76 27.76 0 0 0 1.917-2.494 30.483 30.483 0 0 0 1.642-2.721c.485-.918.873-1.816 1.173-2.695.302-.878.488-1.679.562-2.4.105-1.084-.21-1.889-.952-2.421-.74-.53-1.915-.679-2.92-.197-1.293.621-2.628 1.933-3.761 3.145s-2.125 2.479-2.977 3.762z"/><g><path d="M48.056 140.805c48.933-9.266 268.397-43.813 201.096 6.421 9.914-31.865-112.336-6.421-201.096-6.421z"/></g><g><path d="M263.481 92.428c-3.363 0-6.157-1.075-7.872-3.027-1.109-1.264-1.677-2.822-1.625-4.446-.462-.366-.661-.818-.559-1.296.243-1.121 1.775-1.121 2.79-1.121.5 0 1.125.021 1.896.07 2.576.165 3.445 1.576 4.21 2.822.869 1.417 1.692 2.754 5.616 2.754 1.581 0 3.566-.229 5.898-.683a.977.977 0 0 1 1.108.633.975.975 0 0 1-.467 1.187c-3.867 2.032-7.668 3.107-10.995 3.107z"/></g></svg>